# xmcd
#
# Track frame offsets: 
#        150
#        19567
#        36712
#        53882
#        72242
#        85912
#        104352
#        118710
#        133472
#        150955
#        167355
#        177887
#        193672
#        205365
#        218897
#        239962
#
# Disc length: 3413 seconds
#
# Revision: 0
# Processed by: cddbd v1.5.2PL0 Copyright (c) Steve Scherf et al.
# Submitted via: ExactAudioCopy v0.99pb4
#
DISCID=eb0d5310
DTITLE=Lobo - Calumet
DYEAR=1972
DGENRE=Country
TTITLE0=How Can I Tell Her
TTITLE1=Stoney
TTITLE2=Rock And Roll Days
TTITLE3=One And The Same Thing
TTITLE4=Hope You're Proud Of Me
TTITLE5=Love Me For What I Am
TTITLE6=Try
TTITLE7=It Sure Took A Long, Long Time
TTITLE8=Standing At The End Of The Line
TTITLE9=Goodbye Is Just Another Word
TTITLE10=Suzann
TTITLE11=Stoney (Early Version)
TTITLE12=Cecil Jones
TTITLE13=A Simple Man (Single Version)
TTITLE14=How Can I Tell Her (Early Mix)
TTITLE15=Don't Expect Me To Be Your Friend (Single Version)
EXTD=
EXTT0=
EXTT1=
EXTT2=
EXTT3=
EXTT4=
EXTT5=
EXTT6=
EXTT7=
EXTT8=
EXTT9=
EXTT10=
EXTT11=
EXTT12=
EXTT13=
EXTT14=
EXTT15=
PLAYORDER=
